<?xml version="1.0" standalone="no"?><!DOCTYPE svg PUBLIC "-//W3C//DTD SVG 1.1//EN" "http://www.w3.org/Graphics/SVG/1.1/DTD/svg11.dtd"><svg t="1604802335913" class="icon" viewBox="0 0 1024 1024" version="1.1" xmlns="http://www.w3.org/2000/svg" p-id="1183" xmlns:xlink="http://www.w3.org/1999/xlink" width="200" height="200"><defs><style type="text/css"></style></defs><path d="M939.315453 686.451637c0 92.675732-75.407443 168.11415-168.145124 168.114149-92.706707 0-168.145124-75.438418-168.145124-168.114149 0-92.753168 75.438418-168.191586 168.145124-168.191586 40.251375 0 77.203965 14.248274 106.165131 37.897312V190.487793l-65.015495 21.418873a20.659998 20.659998 0 0 1-12.931858-39.260191l77.947353-25.646893V90.207819l-467.916426 154.191107-0.325232 56.915661 291.113926-95.757695a20.64451 20.64451 0 1 1 12.900883 39.26019l-304.247118 100.063153-2.772219 494.709376-0.030974 0.154873C405.88794 932.311805 330.526959 1007.59535 237.94415 1007.59535 145.206469 1007.59535 69.799026 932.156932 69.799026 839.434739c0-92.706707 75.407443-168.145124 168.145124-168.145125 40.56112 0 77.807968 14.434121 106.893032 38.439367l2.725757-487.956934a30.943535 30.943535 0 0 1 21.294975-29.255424L898.630435 17.959776A31.005484 31.005484 0 0 1 939.315453 47.385559v619.149468c0 2.214677-0.247796 4.367406-0.681439 6.442698 0.356207 4.460329 0.681439 8.905171 0.681439 13.473912z m-701.371303 46.817971a106.289029 106.289029 0 0 0-106.165131 106.165131c0 58.541823 47.623308 106.180618 106.165131 106.180618 58.541823 0 106.165131-47.638795 106.165131-106.180618a106.289029 106.289029 0 0 0-106.165131-106.165131z m533.226179-153.029564c-58.541823 0-106.165131 47.638795-106.165131 106.211593 0 58.495361 47.623308 106.134156 106.165131 106.134156 58.55731 0 106.165131-47.638795 106.165131-106.134156 0-58.572797-47.607821-106.211593-106.165131-106.211593z m0 171.056728a64.690263 64.690263 0 0 1-64.612827-64.612826 64.891597 64.891597 0 0 1 32.414824-56.048375 20.64451 20.64451 0 1 1 20.613536 35.806533c-7.217061 4.181559-11.708365 11.925186-11.708364 20.241842 0 12.823447 10.453897 23.292831 23.292831 23.292831 12.854421 0 23.308318-10.469384 23.308318-23.292831a20.675485 20.675485 0 0 1 41.319996 0 64.690263 64.690263 0 0 1-64.628314 64.612826z m-533.226179 149.854676a64.674776 64.674776 0 0 1-64.612826-64.612826 64.891597 64.891597 0 0 1 32.399336-56.048375 20.675485 20.675485 0 0 1 20.629024 35.806533 23.339293 23.339293 0 0 0 11.584466 43.534673c12.854421 0 23.292831-10.469384 23.292831-23.292831a20.64451 20.64451 0 1 1 41.319996 0 64.690263 64.690263 0 0 1-64.612827 64.612826z" p-id="1184" fill="#1296db"></path></svg>